<?xml version="1.0" encoding="UTF-8"?>
<svg width="30px" height="30px" viewBox="0 0 30 30" version="1.1" xmlns="http://www.w3.org/2000/svg" xmlns:xlink="http://www.w3.org/1999/xlink">
    <!-- Generator: Sketch 58 (84663) - https://sketch.com -->
    <title>Shape</title>
    <desc>Created with Sketch.</desc>
    <g id="Page-1" stroke="none" stroke-width="1" fill="none" fill-rule="evenodd">
        <g id="01-Home" transform="translate(-1121.000000, -640.000000)" fill="#FFFFFF" fill-rule="nonzero">
            <g id="Group-6" transform="translate(-1.000000, 0.000000)">
                <g id="Group" transform="translate(886.000000, 403.000000)">
                    <g id="Group-3" transform="translate(236.000000, 237.000000)">
                        <path d="M15,0 C6.71566667,0 0,6.71566667 0,15 C0,23.2843333 6.71566667,30 15,30 C23.2843333,30 30,23.2843333 30,15 C30,6.71566667 23.2843333,0 15,0 Z M21.1116667,15.8096667 L12.66,20.74 C12.035,21.1046667 11.25,20.6536667 11.25,19.9303333 L11.25,10.0696667 C11.25,9.346 12.035,8.89533333 12.66,9.26 L21.112,14.1903333 C21.732,14.552 21.732,15.448 21.1116667,15.8096667 Z" id="Shape"></path>
                    </g>
                </g>
            </g>
        </g>
    </g>
</svg>